<svg width="188" height="188" viewBox="0 0 188 188" fill="none" xmlns="http://www.w3.org/2000/svg">
<g clip-path="url(#clip0_79_3307)">
<path d="M-41.4504 171.279C-41.589 171.279 -41.7219 171.224 -41.8199 171.126C-41.9179 171.028 -41.9729 170.895 -41.9729 170.757C-41.9729 170.618 -41.9179 170.485 -41.8199 170.387C-41.7219 170.289 -41.589 170.234 -41.4504 170.234H86.8773C87.0159 170.234 87.1488 170.289 87.2468 170.387C87.3448 170.485 87.3998 170.618 87.3998 170.757C87.3998 170.895 87.3448 171.028 87.2468 171.126C87.1488 171.224 87.0159 171.279 86.8773 171.279H-41.4504Z" fill="#282928"/>
<path d="M-43.4775 187.389C-43.6161 187.389 -43.749 187.334 -43.847 187.236C-43.9449 187.138 -44 187.005 -44 186.866C-44 186.728 -43.9449 186.595 -43.847 186.497C-43.749 186.399 -43.6161 186.344 -43.4775 186.344H84.8502C84.9888 186.344 85.1217 186.399 85.2197 186.497C85.3177 186.595 85.3727 186.728 85.3727 186.866C85.3727 187.005 85.3177 187.138 85.2197 187.236C85.1217 187.334 84.9888 187.389 84.8502 187.389H-43.4775Z" fill="#282928"/>
<path d="M111.853 19.9091H111.801C111.699 19.8901 111.609 19.8342 111.546 19.7522C111.483 19.6702 111.453 19.5679 111.461 19.465C111.461 19.256 111.984 14.0571 113.421 12.2022C113.487 12.123 113.582 12.0731 113.684 12.0633C113.787 12.0535 113.889 12.0846 113.969 12.1499C114.012 12.1803 114.047 12.2195 114.073 12.2648C114.099 12.3101 114.115 12.3604 114.12 12.4123C114.125 12.4643 114.119 12.5167 114.102 12.5661C114.085 12.6155 114.057 12.6606 114.022 12.6985C112.741 14.3444 112.245 19.4911 112.219 19.5434C112.219 19.6404 112.18 19.7334 112.112 19.802C112.043 19.8706 111.95 19.9091 111.853 19.9091Z" fill="white"/>
<path d="M79.0135 34.7222C78.9139 34.7224 78.818 34.6847 78.7452 34.6168C78.6724 34.5488 78.6282 34.4557 78.6216 34.3564C78.6208 34.254 78.6576 34.1549 78.725 34.0779C78.7924 34.0008 78.8858 33.9512 78.9873 33.9384C92.5725 33.2853 102.735 25.5783 102.84 25.4999C102.877 25.4538 102.924 25.4167 102.977 25.3913C103.03 25.3659 103.089 25.3529 103.148 25.3533C103.207 25.3536 103.265 25.3673 103.318 25.3934C103.371 25.4194 103.418 25.4571 103.454 25.5036C103.49 25.5502 103.516 25.6043 103.528 25.662C103.541 25.7198 103.54 25.7796 103.526 25.837C103.513 25.8945 103.486 25.948 103.448 25.9937C103.411 26.0394 103.364 26.076 103.31 26.1008C103.206 26.1792 92.8599 34.069 79.0396 34.7222H79.0135Z" fill="white"/>
<path d="M180.667 171.698H114.91C114.771 171.698 114.638 171.643 114.54 171.545C114.443 171.447 114.387 171.314 114.387 171.175C114.387 171.037 114.443 170.904 114.54 170.806C114.638 170.708 114.771 170.653 114.91 170.653H180.667C180.806 170.653 180.939 170.708 181.037 170.806C181.135 170.904 181.19 171.037 181.19 171.175C181.19 171.314 181.135 171.447 181.037 171.545C180.939 171.643 180.806 171.698 180.667 171.698Z" fill="#282928"/>
<path d="M178.64 187.807H112.883C112.744 187.807 112.611 187.752 112.513 187.654C112.415 187.556 112.36 187.423 112.36 187.285C112.36 187.146 112.415 187.013 112.513 186.915C112.611 186.817 112.744 186.762 112.883 186.762H178.64C178.779 186.762 178.912 186.817 179.01 186.915C179.108 187.013 179.163 187.146 179.163 187.285C179.163 187.423 179.108 187.556 179.01 187.654C178.912 187.752 178.779 187.807 178.64 187.807Z" fill="#282928"/>
<path d="M-4.79689 57.6339L-6.54729 57.5816C-12.2777 57.1813 -17.6228 54.5499 -21.4348 50.2526C-25.2468 45.9553 -27.2218 40.3346 -26.9359 34.5973C-26.65 28.86 -24.1258 23.4636 -19.9054 19.5666C-15.685 15.6696 -10.1049 13.5828 -4.36303 13.7542C1.37884 13.9256 6.82458 16.3415 10.805 20.4833C14.7854 24.6251 16.9832 30.1625 16.9264 35.9067C16.8696 41.6508 14.5628 47.1437 10.5012 51.206C6.43969 55.2682 0.947241 57.576 -4.79689 57.6339ZM-4.87526 15.8072C-10.1166 15.8544 -15.1388 17.9168 -18.9006 21.567C-22.6623 25.2171 -24.875 30.1749 -25.08 35.4125C-25.2849 40.6501 -23.4663 45.7656 -20.0013 49.6986C-16.5363 53.6315 -11.6906 56.08 -6.46891 56.5366C-3.79668 56.7544 -1.10775 56.442 1.44339 55.6174C3.99452 54.7928 6.35759 53.4722 8.39682 51.7316C10.436 49.991 12.1113 47.8646 13.3262 45.4745C14.5411 43.0845 15.2719 40.478 15.4764 37.8047C15.9022 32.4149 14.1714 27.0764 10.6641 22.9617C7.15686 18.8471 2.15988 16.2926 -3.22936 15.8594L-4.87526 15.8072Z" fill="#282928"/>
<path d="M21.4592 36.786C21.3292 36.7867 21.2036 36.7388 21.107 36.6519C21.0104 36.5649 20.9497 36.4451 20.9367 36.3158C20.9105 36.1329 19.4998 18.8902 6.6461 12.3066C6.58435 12.2757 6.52928 12.2329 6.48404 12.1808C6.4388 12.1286 6.40428 12.0681 6.38245 12.0026C6.36061 11.9371 6.3519 11.8679 6.35679 11.799C6.36169 11.7302 6.3801 11.6629 6.41097 11.6012C6.44185 11.5394 6.48459 11.4844 6.53675 11.4391C6.58891 11.3939 6.64947 11.3594 6.71497 11.3375C6.78047 11.3157 6.84963 11.307 6.9185 11.3119C6.98737 11.3168 7.0546 11.3352 7.11636 11.3661C14.118 14.9452 17.8016 21.5288 19.6304 26.4143C20.828 29.5755 21.6181 32.8765 21.9817 36.2374C21.9852 36.306 21.9751 36.3747 21.9521 36.4394C21.929 36.5042 21.8934 36.5637 21.8473 36.6147C21.8012 36.6656 21.7455 36.707 21.6834 36.7364C21.6213 36.7658 21.5539 36.7827 21.4853 36.786H21.4592Z" fill="#282928"/>
<path d="M25.5084 29.4448C25.3698 29.4448 25.2369 29.3898 25.1389 29.2918C25.0409 29.1938 24.9859 29.0609 24.9859 28.9223C24.9859 28.7917 24.803 17.2182 16.3384 10.9481C16.2835 10.9069 16.2373 10.8553 16.2023 10.7963C16.1673 10.7372 16.1444 10.6719 16.1346 10.604C16.1249 10.536 16.1287 10.4669 16.1457 10.4004C16.1628 10.3339 16.1927 10.2714 16.2339 10.2166C16.3172 10.107 16.4387 10.0327 16.5742 10.0085C16.7097 9.98435 16.8493 10.012 16.9654 10.0859C25.8741 16.6956 26.0309 28.3998 26.0309 28.8962C26.0251 29.0354 25.969 29.1678 25.8728 29.2688C25.7767 29.3697 25.6472 29.4323 25.5084 29.4448Z" fill="#282928"/>
<path d="M50.3539 25.1604H50.0926C49.9446 25.1375 49.803 25.0838 49.677 25.0028C49.551 24.9218 49.4434 24.8153 49.3611 24.6901C48.1071 22.8091 44.6063 18.3678 44.5802 18.3155C44.4942 18.2079 44.4541 18.0706 44.4688 17.9336C44.4835 17.7966 44.5517 17.671 44.6585 17.584C44.7704 17.4964 44.9119 17.4557 45.0532 17.4703C45.1945 17.4849 45.3246 17.5538 45.4162 17.6624C45.5468 17.8453 48.9692 22.2082 50.2494 24.1153C50.2494 24.1415 50.6151 24.3243 52.3394 23.2793C53.5412 22.5739 55.0042 21.5289 56.5195 20.4317C60.2815 17.7669 62.8418 16.0165 64.3048 16.1994C64.3736 16.2059 64.4403 16.226 64.5013 16.2585C64.5622 16.291 64.6161 16.3352 64.6598 16.3887C64.7035 16.4421 64.7362 16.5037 64.756 16.5699C64.7758 16.636 64.7823 16.7054 64.7751 16.7741C64.7688 16.842 64.7486 16.9078 64.7158 16.9675C64.683 17.0272 64.6382 17.0796 64.5843 17.1212C64.5304 17.1629 64.4685 17.193 64.4024 17.2097C64.3363 17.2264 64.2675 17.2293 64.2003 17.2183C62.9985 17.0876 59.759 19.4128 57.1465 21.2938C53.8024 23.6451 51.634 25.1604 50.3539 25.1604Z" fill="#D1D1D1"/>
<path d="M54.3511 46.4523C54.2353 46.4632 54.1186 46.4452 54.0115 46.4001C53.8568 46.34 53.7228 46.2365 53.6255 46.1021C53.5281 45.9678 53.4717 45.8081 53.4628 45.6424C53.2277 43.9443 50.0143 40.6525 48.8125 39.5291C48.7514 39.4862 48.7002 39.4307 48.6624 39.3663C48.6246 39.302 48.601 39.2302 48.5932 39.156C48.5854 39.0817 48.5936 39.0067 48.6173 38.9359C48.641 38.8651 48.6795 38.8001 48.7304 38.7455C48.7813 38.6909 48.8433 38.6477 48.9122 38.6191C48.9812 38.5904 49.0554 38.5769 49.1301 38.5793C49.2047 38.5818 49.2779 38.6002 49.3448 38.6334C49.4117 38.6665 49.4707 38.7136 49.5179 38.7715C49.9882 39.1895 54.0376 43.0299 54.4817 45.4073C55.0826 45.2244 56.7024 43.892 57.9041 42.9254C60.4644 40.8354 63.3643 38.4841 65.5066 38.3012C65.5752 38.2977 65.6439 38.3078 65.7086 38.3308C65.7734 38.3539 65.8329 38.3895 65.8839 38.4356C65.9349 38.4817 65.9762 38.5374 66.0056 38.5995C66.035 38.6617 66.0519 38.729 66.0552 38.7976C66.0624 38.8649 66.0558 38.9329 66.0357 38.9976C66.0157 39.0622 65.9826 39.1221 65.9386 39.1734C65.8945 39.2248 65.8404 39.2667 65.7796 39.2964C65.7188 39.3261 65.6526 39.3431 65.585 39.3462C63.7562 39.503 60.8824 41.8543 58.5573 43.7353C56.2321 45.6163 55.161 46.4523 54.3511 46.4523Z" fill="#D1D1D1"/>
<path d="M-17.7025 134.469C-17.8411 134.469 -17.974 134.414 -18.072 134.316C-18.17 134.218 -18.225 134.085 -18.225 133.946V120.387C-18.9766 120.241 -19.6539 119.838 -20.1402 119.247C-20.6266 118.656 -20.8917 117.913 -20.8898 117.148C-20.8932 116.71 -20.81 116.275 -20.6448 115.87C-20.4796 115.464 -20.2357 115.095 -19.9273 114.785C-19.6188 114.474 -19.2519 114.227 -18.8476 114.059C-18.4434 113.89 -18.0098 113.804 -17.5719 113.804H-15.0377C-13.9143 107.821 -10.727 102.779 -6.3641 100.062C-6.73319 99.8495 -7.04841 99.5552 -7.28529 99.2015C-7.52216 98.8478 -7.67431 98.4443 -7.72991 98.0222C-7.78551 97.6002 -7.74306 97.171 -7.60587 96.768C-7.46867 96.3651 -7.24043 95.9991 -6.93886 95.6987C-6.68334 95.4301 -6.37508 95.2172 -6.03341 95.0733C-5.69174 94.9295 -5.32402 94.8578 -4.95333 94.8627H-1.60928V91.5448C-2.13342 91.1559 -2.55923 90.6498 -2.85262 90.0668C-3.14601 89.4839 -3.29882 88.8403 -3.29882 88.1877C-3.29882 87.535 -3.14601 86.8915 -2.85262 86.3085C-2.55923 85.7256 -2.13342 85.2194 -1.60928 84.8306V78.6911C-1.614 78.258 -1.49627 77.8323 -1.26965 77.4632L0.898746 73.8057L3.09328 77.4632C3.30814 77.8374 3.42497 78.2597 3.43291 78.6911V84.8306C3.95259 85.2254 4.37392 85.735 4.66397 86.3196C4.95403 86.9043 5.10494 87.5481 5.10493 88.2007C5.10493 88.8497 4.95384 89.4897 4.66363 90.0701C4.37342 90.6505 3.95205 91.1554 3.43291 91.5448V94.8627H6.77695C7.51834 94.8627 8.22937 95.1572 8.75361 95.6814C9.27785 96.2057 9.57236 96.9167 9.57236 97.6581C9.57372 98.0244 9.50027 98.3871 9.35651 98.7241C9.21276 99.061 9.00173 99.365 8.73635 99.6175C8.57896 99.7945 8.39363 99.9446 8.18772 100.062C12.5507 102.779 15.7379 107.821 16.8613 113.804H18.7162C19.1542 113.804 19.5877 113.89 19.992 114.059C20.3963 114.227 20.7632 114.474 21.0716 114.785C21.3801 115.095 21.6239 115.464 21.7891 115.87C21.9543 116.275 22.0376 116.71 22.0341 117.148C22.036 117.913 21.771 118.656 21.2846 119.247C20.7982 119.838 20.121 120.241 19.3694 120.387V132.744C19.3694 132.883 19.3143 133.016 19.2163 133.114C19.1183 133.212 18.9854 133.267 18.8469 133.267C18.7083 133.267 18.5754 133.212 18.4774 133.114C18.3794 133.016 18.3244 132.883 18.3244 132.744V119.421H18.8207C19.3845 119.349 19.9016 119.07 20.2723 118.639C20.6429 118.209 20.8409 117.656 20.8279 117.087C20.8149 116.519 20.5919 115.976 20.2019 115.563C19.812 115.149 19.2827 114.895 18.7162 114.849H15.9731L15.8947 114.431C14.8236 108.056 11.3489 102.831 6.6202 100.401L4.84368 99.4608L6.8292 99.4085C7.27201 99.3849 7.69057 99.1988 8.00484 98.886C8.17284 98.7292 8.30613 98.5389 8.39612 98.3274C8.48611 98.1159 8.53082 97.8879 8.52735 97.6581C8.52735 97.1939 8.34293 96.7486 8.01467 96.4204C7.68641 96.0921 7.24118 95.9077 6.77695 95.9077H2.3879V90.9961L2.62302 90.8394C3.06512 90.5525 3.42846 90.1596 3.68001 89.6965C3.93156 89.2334 4.06333 88.7147 4.06333 88.1877C4.06333 87.6606 3.93156 87.142 3.68001 86.6788C3.42846 86.2157 3.06512 85.8228 2.62302 85.5359L2.3879 85.3792V78.6911C2.37945 78.442 2.3075 78.1992 2.17889 77.9857L0.898746 75.8434L-0.381393 78.0118C-0.505911 78.2162 -0.569366 78.4519 -0.56427 78.6911V85.3792L-0.7994 85.5359C-1.24732 85.8184 -1.61638 86.2098 -1.87215 86.6735C-2.12792 87.1372 -2.26206 87.6581 -2.26206 88.1877C-2.26206 88.7172 -2.12792 89.2382 -1.87215 89.7018C-1.61638 90.1655 -1.24732 90.5569 -0.7994 90.8394L-0.56427 90.9961V95.9077H-4.95333C-5.18663 95.9068 -5.41774 95.9526 -5.6331 96.0423C-5.84845 96.1321 -6.04369 96.2639 -6.20735 96.4302C-6.52489 96.7602 -6.70272 97.2001 -6.70373 97.6581C-6.70418 98.1091 -6.53056 98.5428 -6.21906 98.8689C-5.90756 99.195 -5.48222 99.3883 -5.03171 99.4085L-3.02005 99.4608L-4.79658 100.401C-9.55139 102.831 -12.9999 108.056 -14.0972 114.431L-14.1756 114.849H-17.5719C-18.1383 114.895 -18.6676 115.149 -19.0576 115.563C-19.4475 115.976 -19.6705 116.519 -19.6835 117.087C-19.6965 117.656 -19.4986 118.209 -19.1279 118.639C-18.7573 119.07 -18.2401 119.349 -17.6764 119.421H-17.18V133.946C-17.18 134.085 -17.235 134.218 -17.333 134.316C-17.431 134.414 -17.5639 134.469 -17.7025 134.469Z" fill="#282928"/>
<path d="M33.3464 137.525H24.8034L24.2548 133.502L19.082 133.267C18.9434 133.26 18.8133 133.198 18.7202 133.095C18.6271 132.993 18.5787 132.857 18.5856 132.718C18.5925 132.58 18.6542 132.45 18.7571 132.356C18.86 132.263 18.9957 132.215 19.1342 132.222L25.1692 132.509L25.7178 136.48H32.6149L34.2347 132.222H64.2266L64.3572 110.407H73.1353L73.0047 132.483H86.3548C86.4933 132.483 86.6262 132.538 86.7242 132.636C86.8222 132.734 86.8773 132.867 86.8773 133.006C86.8773 133.144 86.8222 133.277 86.7242 133.375C86.6262 133.473 86.4933 133.528 86.3548 133.528H71.9597L72.0903 111.452H65.4022L65.2455 133.267H34.9401L33.3464 137.525Z" fill="#282928"/>
<path d="M149.055 115.658H138.657C138.519 115.658 138.386 115.603 138.288 115.505C138.19 115.407 138.135 115.274 138.135 115.136C138.135 114.997 138.19 114.864 138.288 114.766C138.386 114.668 138.519 114.613 138.657 114.613H149.055C149.194 114.613 149.327 114.668 149.425 114.766C149.523 114.864 149.578 114.997 149.578 115.136C149.578 115.274 149.523 115.407 149.425 115.505C149.327 115.603 149.194 115.658 149.055 115.658Z" fill="#282928"/>
<path d="M149.055 115.658C148.917 115.658 148.784 115.603 148.686 115.505C148.588 115.407 148.533 115.274 148.533 115.136V109.022H153.053C153.191 109.022 153.324 109.078 153.422 109.175C153.52 109.273 153.575 109.406 153.575 109.545C153.575 109.684 153.52 109.816 153.422 109.914C153.324 110.012 153.191 110.067 153.053 110.067H149.578V115.136C149.578 115.274 149.523 115.407 149.425 115.505C149.327 115.603 149.194 115.658 149.055 115.658Z" fill="#282928"/>
<path d="M185.605 115.658H180.275V110.068H174.11V115.658H167.213V110.068H161.047V115.658H155.744V110.068H152.53V88.2007H189.054V110.068H185.605V115.658ZM181.32 114.613H184.56V109.023H188.008V89.2457H153.575V109.023H156.789V114.613H160.002V109.023H168.258V114.613H173.065V109.023H181.32V114.613Z" fill="#282928"/>
<path fill-rule="evenodd" clip-rule="evenodd" d="M110.951 45.9146L108.807 51.9172L118.141 54.4156L119.625 48.6107L110.951 45.9146Z" fill="#F9BB92"/>
<path fill-rule="evenodd" clip-rule="evenodd" d="M110.554 47.0723L110.917 46.0552L111.89 45.0404L109.612 45.12L109.242 45.6686C109.626 46.2189 110.063 46.6868 110.554 47.0723Z" fill="#000045"/>
<path fill-rule="evenodd" clip-rule="evenodd" d="M123.467 40.8938C123.467 40.8938 125.073 40.9568 125.145 42.5258C125.232 44.4667 123.029 44.7499 123.029 44.7499L123.467 40.8938Z" fill="#F9BB92"/>
<path fill-rule="evenodd" clip-rule="evenodd" d="M123.567 41.6649C123.567 41.6649 123.191 44.8792 122.977 45.9034C122.767 46.927 121.321 49.6018 117.657 50.2294C113.993 50.8567 111.227 47.533 110.851 45.8445C110.851 45.8445 108.357 46.6891 107.369 44.3849C106.723 42.8872 108.427 40.6037 110.658 41.7657L113.227 36.952L119.479 34.4044L124.076 37.5633L123.567 41.6649Z" fill="#FFC8A3"/>
<path fill-rule="evenodd" clip-rule="evenodd" d="M108.448 43.0051C108.448 43.0051 109.371 43.4307 110.264 44.4181C110.359 44.5235 110.521 44.5325 110.626 44.4375C110.732 44.342 110.741 44.179 110.645 44.0733C109.673 42.9956 108.66 42.5365 108.66 42.5365C108.533 42.477 108.38 42.5342 108.321 42.6637C108.261 42.7932 108.317 42.9464 108.448 43.0051Z" fill="#000045"/>
<path fill-rule="evenodd" clip-rule="evenodd" d="M108.982 44.3844C108.982 44.3844 109.506 44.0191 109.902 43.8676C110.034 43.8171 110.103 43.6676 110.051 43.5348C109.999 43.4026 109.854 43.3351 109.717 43.3864C109.276 43.5554 108.689 43.9612 108.689 43.9612C108.571 44.0425 108.544 44.2027 108.624 44.3198C108.704 44.437 108.869 44.4649 108.982 44.3844Z" fill="#000045"/>
<path fill-rule="evenodd" clip-rule="evenodd" d="M114.076 41.1659C114.076 41.1659 115.173 40.0757 116.486 40.9821C116.603 41.0627 116.763 41.033 116.846 40.915C116.924 40.799 116.897 40.6371 116.78 40.5568C115.108 39.4042 113.712 40.8016 113.712 40.8016C113.611 40.9021 113.61 41.066 113.712 41.1656C113.811 41.267 113.976 41.2664 114.076 41.1659Z" fill="#000045"/>
<path fill-rule="evenodd" clip-rule="evenodd" d="M119.37 40.7223C119.37 40.7223 119.7 40.3972 120.209 40.2486C120.344 40.209 120.424 40.0653 120.385 39.9282C120.342 39.793 120.201 39.7136 120.065 39.7532C119.417 39.9436 119.005 40.358 119.005 40.358C118.904 40.4585 118.903 40.6224 119.006 40.7219C119.105 40.8234 119.269 40.8228 119.37 40.7223Z" fill="#000045"/>
<path fill-rule="evenodd" clip-rule="evenodd" d="M116.265 45.6398C115.951 46.4185 116.328 47.3073 117.108 47.6223C117.889 47.9373 118.778 47.5591 119.092 46.7804L116.265 45.6398Z" fill="white"/>
<path d="M115.962 43.1421C116.247 43.0876 116.434 42.812 116.38 42.5265C116.325 42.241 116.05 42.0538 115.764 42.1083C115.479 42.1628 115.292 42.4385 115.346 42.7239C115.401 43.0094 115.676 43.1967 115.962 43.1421Z" fill="#000045"/>
<path d="M121.857 43.1446C122.143 43.0901 122.33 42.8145 122.275 42.529C122.221 42.2435 121.945 42.0563 121.66 42.1108C121.374 42.1653 121.187 42.4409 121.242 42.7264C121.296 43.0119 121.572 43.1991 121.857 43.1446Z" fill="#000045"/>
<path fill-rule="evenodd" clip-rule="evenodd" d="M110.674 41.7647C110.674 41.7647 111.168 42.962 111.373 43.195C111.587 43.4192 112.174 41.3093 112.366 39.9852C112.366 39.9852 112.873 38.8059 113.158 37.8125C113.452 36.8292 114.154 36.5986 114.817 37.1195C114.817 37.1195 116.12 35.6009 117.164 36.1278C118.217 36.6647 118.856 41.7767 124.311 40.9985C124.311 40.9985 126.344 31.6888 118.674 29.992C112.689 28.654 110.415 32.1808 110.415 32.1808C110.415 32.1808 107.363 33.155 106.811 35.7445C106.26 38.3244 107.786 42.2626 107.786 42.2626C107.786 42.2626 108.744 40.9124 110.674 41.7647Z" fill="#000045"/>
<path fill-rule="evenodd" clip-rule="evenodd" d="M118.584 43.5921L119.122 44.9928C119.171 45.1202 119.32 45.1873 119.457 45.139C119.584 45.09 119.651 44.9415 119.603 44.8047L119.064 43.4136C119.015 43.2767 118.867 43.2099 118.73 43.2582C118.602 43.3166 118.535 43.4648 118.584 43.5921Z" fill="#000045"/>
<path fill-rule="evenodd" clip-rule="evenodd" d="M135.141 152.365L137.358 161.401L134.363 165.453L130.125 163.862L126.455 154.41L134.01 151.246L135.141 152.365Z" fill="#FFC8A3"/>
<path fill-rule="evenodd" clip-rule="evenodd" d="M101.124 151.73L96.6737 159.901L91.7305 160.877L89.6712 156.846L93.3268 147.389L101.041 150.141L101.124 151.73Z" fill="#FFC8A3"/>
<path fill-rule="evenodd" clip-rule="evenodd" d="M122.623 97.7134L129.627 126.122L136.456 152.614L126.006 157.844L114.796 127.359L111.43 97.8283L122.623 97.7134Z" fill="#040404"/>
<path fill-rule="evenodd" clip-rule="evenodd" d="M98.3742 100.761C98.3742 100.761 100.229 115.946 102.137 124.603L89.876 151.431L101.015 156.996C101.015 156.996 114.513 137.801 117.066 126.935C119.372 117.165 117.066 99.489 117.066 99.489L98.3742 100.761Z" fill="#040404"/>
<path fill-rule="evenodd" clip-rule="evenodd" d="M117.322 126.996C118.868 120.424 118.347 110.292 117.834 104.321C117.817 104.179 117.693 104.073 117.552 104.091C117.41 104.1 117.305 104.223 117.322 104.365C117.835 110.292 118.356 120.354 116.819 126.882C116.783 127.014 116.872 127.155 117.013 127.191C117.146 127.226 117.287 127.138 117.322 126.996Z" fill="#000045"/>
<path fill-rule="evenodd" clip-rule="evenodd" d="M136.538 161.421C136.538 161.421 134.195 164.631 130.028 163.161C130.028 163.161 128.375 163.025 128.363 164.523C128.354 165.691 128.968 172.401 129.237 175.21C129.302 175.926 129.877 176.477 130.6 176.5C134.296 176.603 144.195 176.781 153.324 176.228C153.907 176.198 154.407 175.807 154.582 175.244C154.861 174.332 155.211 172.832 155.13 171.24C155.033 169.51 153.755 168.064 152.039 167.775C148.804 167.209 142.972 165.884 141.322 163.382C140.203 161.703 139.833 161.266 138.518 160.673C137.19 160.078 136.538 161.421 136.538 161.421Z" fill="#E00034"/>
<path fill-rule="evenodd" clip-rule="evenodd" d="M96.1006 158.377C96.1006 158.377 92.4416 159.928 89.6207 156.527C89.6207 156.527 88.2725 155.563 87.4928 156.842C86.8857 157.839 83.962 163.931 82.75 166.48C82.4362 167.119 82.6558 167.885 83.2452 168.271C85.938 170.029 92.5284 174.215 100.33 177.527C101.252 177.915 104.403 177.71 106.257 177.812C106.953 177.847 107.573 177.367 107.718 176.687C107.827 176.103 107.955 175.327 108.044 174.335C108.177 172.994 107.571 171.68 106.456 170.916C105.728 170.412 104.841 169.767 103.945 169.025C101.661 167.147 99.288 164.685 99.1986 162.516C99.1013 160.501 99.0078 159.936 98.1836 158.751C97.3492 157.559 96.1006 158.377 96.1006 158.377Z" fill="#E00034"/>
<path fill-rule="evenodd" clip-rule="evenodd" d="M143.294 164.82C143.294 164.82 142.299 166.358 142.097 168.727C142.09 168.873 142.196 168.995 142.337 169.009C142.477 169.024 142.603 168.916 142.61 168.77C142.805 166.547 143.728 165.094 143.728 165.094C143.809 164.981 143.768 164.821 143.654 164.746C143.533 164.668 143.371 164.696 143.294 164.82Z" fill="white"/>
<path fill-rule="evenodd" clip-rule="evenodd" d="M100.148 164.762C100.148 164.762 98.5038 165.571 97.1142 167.5C97.0331 167.621 97.062 167.781 97.1751 167.866C97.2882 167.95 97.4516 167.922 97.5326 167.801C98.8412 165.993 100.379 165.22 100.379 165.22C100.506 165.165 100.553 165.006 100.494 164.883C100.43 164.755 100.277 164.696 100.148 164.762Z" fill="white"/>
<path fill-rule="evenodd" clip-rule="evenodd" d="M145.362 165.829C145.083 166.352 144.469 167.675 144.315 169.478C144.307 169.623 144.414 169.746 144.555 169.76C144.695 169.775 144.821 169.666 144.828 169.521C144.975 167.814 145.557 166.57 145.821 166.071C145.891 165.946 145.84 165.792 145.716 165.723C145.593 165.655 145.432 165.703 145.362 165.829Z" fill="white"/>
<path fill-rule="evenodd" clip-rule="evenodd" d="M101.665 166.547C101.665 166.547 100.021 167.357 98.6315 169.286C98.5504 169.406 98.5794 169.566 98.6925 169.651C98.8056 169.736 98.9689 169.707 99.05 169.586C100.359 167.778 101.896 167.005 101.896 167.005C102.024 166.95 102.071 166.791 102.012 166.668C101.948 166.54 101.795 166.481 101.665 166.547Z" fill="white"/>
<path fill-rule="evenodd" clip-rule="evenodd" d="M147.634 166.476C147.339 167.052 146.779 168.324 146.632 170.031C146.624 170.176 146.731 170.298 146.872 170.313C147.012 170.327 147.138 170.219 147.145 170.074C147.285 168.463 147.808 167.259 148.096 166.709C148.159 166.581 148.108 166.427 147.981 166.368C147.857 166.3 147.697 166.348 147.634 166.476Z" fill="white"/>
<path fill-rule="evenodd" clip-rule="evenodd" d="M103.372 168.213C103.372 168.213 101.728 169.022 100.339 170.951C100.257 171.072 100.286 171.231 100.4 171.316C100.513 171.401 100.676 171.372 100.757 171.251C102.066 169.443 103.603 168.67 103.603 168.67C103.731 168.615 103.778 168.457 103.719 168.334C103.655 168.205 103.502 168.146 103.372 168.213Z" fill="white"/>
<path fill-rule="evenodd" clip-rule="evenodd" d="M101.793 54.0535C101.793 54.0535 99.4779 55.2395 98.5769 61.6447C97.773 67.3837 94.5931 87.6848 94.8316 100.76C94.8581 101.508 95.3793 102.147 96.1125 102.32C99.9374 103.114 111.933 104.975 123.824 100.148C124.477 99.8838 124.884 99.2361 124.848 98.5336C124.575 93.8711 123.567 76.7725 123.567 76.7725L117.428 55.5404L101.793 54.0535Z" fill="#E00034"/>
<path fill-rule="evenodd" clip-rule="evenodd" d="M105.488 49.6729C105.098 49.6904 104.717 49.8477 104.431 50.1189C103.316 51.2126 100.553 54.3798 100.629 58.8681C100.649 59.5856 101.068 60.2332 101.725 60.5394C102.992 61.1168 105.622 61.5544 110.548 59.6908C117.074 57.2235 118.903 58.8421 120.389 59.2971C120.389 59.2971 121.285 57.696 120.78 56.6111C120.78 56.6111 121.494 54.5726 120.132 53.0239C118.798 51.5103 112.634 49.4017 105.488 49.6729Z" fill="#E00034"/>
<path fill-rule="evenodd" clip-rule="evenodd" d="M120.351 56.2319C120.351 56.2319 118.911 55.9405 118.107 55.9935C117.966 56.0023 117.86 56.1258 117.868 56.2671C117.877 56.4085 118.001 56.5144 118.142 56.5056C118.893 56.4526 120.245 56.7354 120.245 56.7354C120.386 56.7619 120.528 56.6735 120.554 56.5321C120.581 56.3908 120.492 56.2584 120.351 56.2319Z" fill="#000045"/>
<path fill-rule="evenodd" clip-rule="evenodd" d="M98.3295 61.599C97.72 64.829 96.5097 72.7852 95.6263 81.444C95.6175 81.59 95.7148 81.7175 95.8561 81.7266C95.9974 81.7449 96.1299 81.6445 96.1387 81.4985C97.0221 72.8489 98.2234 64.9202 98.833 61.6903C98.8595 61.5534 98.7622 61.4165 98.6297 61.3891C98.4884 61.3617 98.356 61.4531 98.3295 61.599Z" fill="white"/>
<path fill-rule="evenodd" clip-rule="evenodd" d="M157.566 68.5103C157.584 68.3982 157.554 68.2788 157.486 68.1894C157.418 68.0942 157.317 68.0299 157.203 68.0121C157.09 67.9942 156.973 68.0242 156.88 68.0942C156.788 68.1582 156.723 68.2628 156.705 68.3749C156.32 70.8235 154.425 82.8778 154.425 82.8778L155.286 83.0132C155.286 83.0132 157.181 70.9589 157.566 68.5103Z" fill="#4E4E4E"/>
<path fill-rule="evenodd" clip-rule="evenodd" d="M149.194 78.8241C149.194 78.8241 151.526 77.4285 152.454 77.1105C153.39 76.8013 156.747 75.4676 157.047 75.7502C157.348 76.0241 157.86 76.8453 157.772 77.6315C157.772 77.6315 158.046 78.6742 157.772 79.5487C157.772 79.5487 158.054 80.6969 157.586 81.4124C157.586 81.4124 157.577 82.5519 156.659 83.1084C155.74 83.6649 152.418 83.7268 151.217 83.6208C150.025 83.5148 149.194 78.8241 149.194 78.8241Z" fill="#FFC8A3"/>
<path fill-rule="evenodd" clip-rule="evenodd" d="M119.884 58.8725C119.884 58.8725 116.58 57.6002 114.027 60.0029C111.483 62.4145 112.375 69.3227 113.603 73.0505C114.831 76.7694 119.275 86.5129 122.508 89.9227C125.732 93.3237 132.551 91.274 132.551 91.274C132.551 91.274 143.267 88.5179 144.053 88.2705C144.83 88.0232 148.275 87.1046 149.238 85.2319C149.238 85.2319 150.21 84.7548 150.802 84.4545C151.085 84.3131 151.279 84.0306 151.305 83.7126C151.367 82.6349 151.297 80.1261 149.539 78.2092C149.362 78.0148 149.115 77.9088 148.85 77.9176C148.125 77.9353 146.641 77.9794 146.641 77.9794C146.641 77.9794 144.777 77.1049 141.685 77.9176C138.602 78.7391 129.274 79.8524 129.274 79.8524C129.274 79.8524 124.16 61.2222 119.884 58.8725Z" fill="#E00034"/>
<path fill-rule="evenodd" clip-rule="evenodd" d="M113.85 59.817C112.799 60.8152 112.296 62.5641 112.172 64.5516C111.995 67.4491 112.614 70.8678 113.356 73.1292C114.592 76.8658 119.071 86.6713 122.313 90.0988C122.41 90.1959 122.578 90.2046 122.684 90.1074C122.781 90.0102 122.79 89.8425 122.693 89.7365C119.477 86.3532 115.069 76.6628 113.841 72.9615C113.117 70.7619 112.508 67.4138 112.684 64.5782C112.799 62.7408 113.232 61.1155 114.204 60.1879C114.31 60.0908 114.319 59.9316 114.221 59.8256C114.124 59.7285 113.956 59.7198 113.85 59.817Z" fill="white"/>
<path fill-rule="evenodd" clip-rule="evenodd" d="M151.977 77.2427C151.977 77.2427 152.984 76.0061 153.408 75.6792C153.832 75.3435 155.744 73.9328 156 73.5L155.228 77.2517L151.977 77.2427Z" fill="#FFC8A3"/>
<path fill-rule="evenodd" clip-rule="evenodd" d="M128.582 80.6449C128.582 80.6449 127.239 82.9593 126.806 84.9557C126.771 85.0971 126.859 85.2296 127.001 85.2649C127.142 85.2914 127.274 85.2028 127.31 85.0703C127.725 83.1446 129.024 80.9099 129.024 80.9099C129.103 80.7862 129.059 80.6272 128.935 80.5565C128.812 80.4859 128.653 80.5212 128.582 80.6449Z" fill="white"/>
<path fill-rule="evenodd" clip-rule="evenodd" d="M147.155 79.4114C147.155 79.4114 148.25 81.4518 148.86 83.9517C148.895 84.0931 149.037 84.1725 149.178 84.146C149.31 84.1107 149.399 83.9695 149.363 83.8282C148.736 81.2664 147.605 79.164 147.605 79.164C147.535 79.0403 147.385 78.9962 147.252 79.058C147.128 79.1287 147.084 79.2877 147.155 79.4114Z" fill="white"/>
<path d="M62.7963 131.936L62.7569 131.925C62.7064 131.906 62.6602 131.877 62.621 131.839C62.5818 131.802 62.5504 131.757 62.5285 131.708C62.5067 131.659 62.4949 131.605 62.4938 131.551C62.4926 131.497 62.5023 131.443 62.522 131.393L75.4701 98.0927L64.4858 93.8441L51.2709 127.495C51.2605 127.555 51.237 127.611 51.202 127.661C51.167 127.71 51.1215 127.752 51.0687 127.781C51.0159 127.811 50.9572 127.829 50.8967 127.833C50.8363 127.837 50.7756 127.828 50.7192 127.806C50.6627 127.784 50.6119 127.75 50.5703 127.706C50.5287 127.661 50.4974 127.609 50.4788 127.551C50.4601 127.493 50.4544 127.432 50.4623 127.372C50.4701 127.312 50.4911 127.254 50.5239 127.204L64.0161 92.7804L76.5283 97.6428L63.269 131.685C63.2374 131.779 63.1708 131.858 63.0828 131.905C62.9948 131.951 62.8923 131.963 62.7963 131.936Z" fill="#282928"/>
<path d="M37.6161 122.083C44.1061 124.091 57.3411 128.028 64.1683 130.045C64.7194 130.209 65.2309 130.485 65.6713 130.856C66.1117 131.226 66.4716 131.682 66.7289 132.197C66.9862 132.711 67.1354 133.273 67.1672 133.847C67.1991 134.422 67.113 134.997 66.9143 135.537L51.684 176.779C51.3149 177.782 50.5768 178.606 49.6205 179.083C48.6642 179.56 47.5619 179.654 46.5388 179.345L19.4455 171.191C18.8912 171.023 18.3775 170.743 17.9364 170.367C17.4953 169.992 17.1364 169.529 16.8821 169.009C16.6278 168.489 16.4836 167.921 16.4583 167.343C16.4331 166.764 16.5275 166.186 16.7356 165.646L32.4423 124.599C32.8293 123.605 33.5771 122.794 34.5363 122.327C35.4955 121.861 36.5954 121.774 37.6161 122.083Z" fill="#138062"/>
<path d="M20.8904 179.443C20.132 179.229 19.4541 178.796 18.9421 178.197C18.43 177.598 18.1069 176.861 18.0134 176.078C17.9199 175.296 18.0602 174.503 18.4167 173.801C18.7732 173.098 19.3298 172.517 20.0164 172.13C20.7029 171.743 21.4886 171.569 22.2743 171.628C23.06 171.687 23.8105 171.978 24.4311 172.464C25.0517 172.949 25.5145 173.608 25.7613 174.356C26.008 175.104 26.0276 175.909 25.8175 176.668C25.6774 177.175 25.4386 177.649 25.1148 178.062C24.791 178.476 24.3886 178.822 23.9307 179.08C23.4729 179.338 22.9686 179.503 22.4468 179.565C21.925 179.627 21.3961 179.586 20.8904 179.443ZM22.7992 172.544C22.1947 172.381 21.5554 172.401 20.962 172.6C20.3686 172.8 19.8476 173.171 19.4648 173.667C19.082 174.162 18.8545 174.76 18.811 175.385C18.7675 176.009 18.91 176.633 19.2204 177.176C19.5308 177.72 19.9952 178.16 20.5552 178.44C21.1152 178.72 21.7456 178.828 22.3669 178.751C22.9882 178.673 23.5726 178.413 24.0463 178.004C24.5201 177.594 24.862 177.054 25.029 176.45C25.1405 176.047 25.1712 175.626 25.1193 175.212C25.0674 174.797 24.934 174.396 24.7268 174.033C24.5196 173.67 24.2425 173.352 23.9117 173.096C23.5809 172.84 23.2028 172.653 22.7992 172.544Z" fill="#282928"/>
<path d="M21.5147 177.452C22.5925 177.75 23.708 177.118 24.0062 176.04C24.3044 174.963 23.6724 173.847 22.5946 173.549C21.5168 173.251 20.4013 173.883 20.1031 174.961C19.8049 176.038 20.4369 177.154 21.5147 177.452Z" fill="#282928"/>
<path d="M41.3004 183.144C42.3782 183.442 43.4937 182.81 43.7919 181.732C44.09 180.654 43.458 179.539 42.3802 179.241C41.3024 178.942 40.187 179.574 39.8888 180.652C39.5906 181.73 40.2226 182.845 41.3004 183.144Z" fill="#282928"/>
<path d="M40.5807 185.003C39.8166 184.792 39.1323 184.358 38.6144 183.758C38.0964 183.158 37.7682 182.417 37.6711 181.63C37.574 180.843 37.7124 180.045 38.0688 179.337C38.4252 178.629 38.9837 178.042 39.6735 177.652C40.3634 177.261 41.1536 177.083 41.9443 177.141C42.735 177.2 43.4907 177.491 44.1158 177.979C44.7409 178.467 45.2073 179.129 45.456 179.882C45.7048 180.634 45.7247 181.444 45.5133 182.208C45.3754 182.717 45.1379 183.194 44.8146 183.61C44.4914 184.027 44.0887 184.375 43.63 184.635C43.1713 184.895 42.6657 185.061 42.1423 185.124C41.6189 185.187 41.0881 185.146 40.5807 185.003ZM42.495 178.084C41.886 177.915 41.2406 177.932 40.6408 178.13C40.0409 178.329 39.5136 178.702 39.1256 179.2C38.7377 179.699 38.5066 180.302 38.4617 180.932C38.4168 181.563 38.56 182.192 38.8733 182.741C39.1866 183.29 39.6558 183.733 40.2214 184.015C40.787 184.297 41.4235 184.404 42.0503 184.324C42.6771 184.243 43.2659 183.979 43.742 183.563C44.2182 183.148 44.5602 182.6 44.7248 181.99C44.9443 181.177 44.833 180.309 44.4153 179.577C43.9975 178.845 43.3072 178.309 42.495 178.084Z" fill="#282928"/>
<path d="M27.6271 170.845L27.6074 170.839C27.5069 170.796 27.4256 170.718 27.3787 170.619C27.3319 170.52 27.3227 170.407 27.3528 170.302C28.8299 166.191 41.787 129.943 43.5021 128.423C45.2172 126.902 48.331 127 48.4602 126.993C48.5668 127.004 48.6649 127.056 48.7333 127.139C48.8018 127.221 48.8352 127.327 48.8263 127.434C48.8242 127.487 48.8115 127.538 48.7889 127.585C48.7664 127.633 48.7345 127.675 48.6951 127.71C48.6558 127.745 48.6098 127.771 48.56 127.787C48.5101 127.804 48.4575 127.81 48.4052 127.806C48.38 127.82 45.5947 127.686 44.0524 129.042C42.8339 130.148 33.8704 154.492 28.125 170.579C28.0919 170.679 28.0218 170.762 27.9291 170.812C27.8364 170.861 27.7283 170.873 27.6271 170.845Z" fill="#282928"/>
<path d="M57.6579 159.099L57.6382 159.094L23.5311 149.445C23.3921 149.408 23.263 149.34 23.153 149.247C23.043 149.155 22.9547 149.039 22.8944 148.908C22.836 148.778 22.8054 148.637 22.8047 148.494C22.8039 148.351 22.8331 148.21 22.8903 148.079L23.728 146.125C23.8289 145.906 24.0042 145.729 24.2229 145.626C24.4417 145.524 24.6897 145.502 24.923 145.565L59.1044 155.021C59.2422 155.061 59.3701 155.13 59.4798 155.222C59.5895 155.315 59.6785 155.429 59.741 155.558C59.7995 155.689 59.8301 155.83 59.8308 155.972C59.8315 156.115 59.8023 156.256 59.7452 156.387L58.8386 158.513C58.7459 158.737 58.5752 158.92 58.3581 159.027C58.1411 159.135 57.8923 159.161 57.6579 159.099ZM24.7048 146.353C24.6611 146.341 24.6143 146.345 24.5735 146.365C24.5327 146.385 24.5007 146.42 24.4838 146.462L23.6264 148.41C23.6114 148.459 23.6118 148.511 23.6276 148.559C23.6553 148.605 23.6984 148.64 23.7492 148.656L57.8761 158.311C57.9198 158.323 57.9666 158.319 58.0074 158.299C58.0483 158.279 58.0802 158.244 58.0971 158.202L59.0091 156.056C59.0241 156.008 59.0237 155.956 59.0078 155.907C58.9802 155.861 58.9371 155.827 58.8862 155.81L24.7048 146.353Z" fill="#282928"/>
<path d="M45.6403 156.284C44.9331 156.094 44.3303 155.631 43.9646 154.996C43.5989 154.362 43.5002 153.608 43.6902 152.901C43.8803 152.194 44.3435 151.591 44.978 151.225C45.6124 150.859 46.3662 150.761 47.0734 150.951L49.2418 151.551C49.9346 151.748 50.5241 152.205 50.8861 152.828C51.2482 153.451 51.3546 154.19 51.1831 154.889C50.9868 155.596 50.5233 156.198 49.8907 156.569C49.5789 156.756 49.2324 156.878 48.8722 156.928C48.512 156.978 48.1454 156.954 47.7944 156.859L45.6458 156.264L45.6403 156.284ZM49.0836 152.122L46.9153 151.522C46.3649 151.376 45.7788 151.454 45.2859 151.739C44.793 152.025 44.4337 152.494 44.2871 153.045C44.1404 153.595 44.2184 154.181 44.5039 154.674C44.7894 155.167 45.259 155.526 45.8094 155.673L47.9581 156.267C48.2318 156.339 48.5171 156.356 48.7974 156.317C49.0776 156.278 49.3475 156.184 49.5913 156.04C50.0776 155.753 50.4341 155.289 50.5862 154.745C50.732 154.198 50.6559 153.616 50.3745 153.125C50.0931 152.633 49.6292 152.273 49.0836 152.122Z" fill="white"/>
<path d="M54.5905 156.531C54.917 156.621 55.2549 156.43 55.3452 156.103C55.4355 155.777 55.2441 155.439 54.9176 155.349C54.5911 155.258 54.2532 155.45 54.1629 155.776C54.0725 156.103 54.264 156.441 54.5905 156.531Z" fill="#282928"/>
<path d="M52.6511 155.719L50.0491 154.999C49.9706 154.977 49.9041 154.925 49.8639 154.855C49.8238 154.784 49.8135 154.7 49.8352 154.622C49.8569 154.543 49.9088 154.477 49.9796 154.437C50.0504 154.396 50.1343 154.386 50.2127 154.408L52.8147 155.128C52.8931 155.149 52.9597 155.201 52.9998 155.272C53.04 155.343 53.0503 155.427 53.0286 155.505C53.0069 155.584 52.9549 155.65 52.8842 155.69C52.8134 155.73 52.7295 155.741 52.6511 155.719Z" fill="white"/>
<path fill-rule="evenodd" clip-rule="evenodd" d="M68.4197 96.3179C68.4197 96.3179 67.7954 97.5605 67.6403 98.7365C67.6307 98.7987 67.6744 98.8559 67.7367 98.8655C67.7947 98.8716 67.8519 98.828 67.8615 98.7657C68.016 97.6243 68.6211 96.4217 68.6211 96.4217C68.6507 96.3691 68.6249 96.2988 68.5723 96.2692C68.5163 96.2437 68.4493 96.2653 68.4197 96.3179Z" fill="#E89B68"/>
<path fill-rule="evenodd" clip-rule="evenodd" d="M67.5267 95.7033C67.5267 95.7033 66.9015 96.8118 66.7471 97.9954C66.741 98.0534 66.7846 98.1108 66.8468 98.1203C66.9049 98.1264 66.9622 98.0827 66.9683 98.0247C67.1228 96.8832 67.7246 95.8114 67.7246 95.8114C67.7501 95.7553 67.7326 95.6919 67.6758 95.6588C67.6232 95.6292 67.5563 95.6507 67.5267 95.7033Z" fill="#E89B68"/>
<path fill-rule="evenodd" clip-rule="evenodd" d="M66.7692 95.0609C66.7692 95.0609 66.3523 95.6479 66.0504 96.688C66.0291 96.7475 66.0657 96.8131 66.1245 96.8268C66.184 96.8481 66.2496 96.8114 66.2633 96.7527C66.5536 95.7519 66.954 95.1932 66.954 95.1932C66.9878 95.144 66.9772 95.0723 66.9281 95.0385C66.8748 95.0013 66.803 95.0118 66.7692 95.0609Z" fill="#E89B68"/>
<path fill-rule="evenodd" clip-rule="evenodd" d="M75.8901 90.5579C75.8901 90.5579 75.5956 91.1056 75.6127 92.9099C75.6297 94.7141 74.0204 98.3285 74.0204 98.3285L66.8808 95.7076C66.8808 95.7076 67.2921 92.972 69.2629 91.6542C71.2331 90.3362 74.3773 89.1204 74.3773 89.1204L75.8901 90.5579Z" fill="#FFC8A3"/>
<path d="M75.4078 96.2951L64.7413 92.1268C63.6703 91.7082 62.4627 92.2372 62.0441 93.3082L62.042 93.3137C61.6234 94.3848 62.1524 95.5924 63.2235 96.0109L73.8899 100.179C74.9609 100.598 76.1685 100.069 76.5871 98.9978L76.5892 98.9923C77.0078 97.9212 76.4788 96.7136 75.4078 96.2951Z" fill="#E00034"/>
<path fill-rule="evenodd" clip-rule="evenodd" d="M70.7504 89.5849C70.7504 89.5849 68.7059 91.2243 67.8094 92.0067C66.9134 92.7895 66.2274 94.5835 65.7843 95.4739C65.3407 96.3639 66.3832 96.7806 67.3257 95.5957C68.2689 94.4111 68.3166 94.2532 68.3166 94.2532L70.3378 93.2767L75.1608 91.1021L70.7504 89.5849Z" fill="#FFC8A3"/>
<path fill-rule="evenodd" clip-rule="evenodd" d="M70.968 100.862C70.9009 100.965 70.7975 101.034 70.6804 101.055C70.5589 101.083 70.4391 101.054 70.3376 100.988C70.152 100.866 69.9347 100.715 69.7476 100.593C69.6474 100.518 69.576 100.412 69.5544 100.291C69.538 100.163 69.5704 100.038 69.6453 99.9401C69.9599 99.5303 70.4656 98.874 70.8348 98.3924C70.9547 98.2363 71.1316 98.137 71.3297 98.1101C71.5226 98.0895 71.7227 98.142 71.8736 98.2698C72.168 98.5009 72.2372 98.9171 72.0316 99.2321C71.7098 99.7252 71.2495 100.43 70.968 100.862Z" fill="#FFC8A3"/>
<path fill-rule="evenodd" clip-rule="evenodd" d="M69.6439 100.336C69.5844 100.427 69.4797 100.498 69.3662 100.514C69.2473 100.537 69.1223 100.515 69.0254 100.442C68.8272 100.313 68.5897 100.148 68.389 100.017C68.2896 99.9419 68.2188 99.8356 68.194 99.7194C68.1745 99.5966 68.2037 99.4755 68.2751 99.3821C68.5985 98.9628 69.1415 98.2568 69.5264 97.7576C69.6493 97.5977 69.8259 97.5029 70.0261 97.4835C70.2256 97.4636 70.432 97.5183 70.588 97.6502C70.8914 97.8882 70.9673 98.3079 70.7658 98.6166C70.4315 99.1288 69.937 99.8865 69.6439 100.336Z" fill="#FFC8A3"/>
<path fill-rule="evenodd" clip-rule="evenodd" d="M68.337 99.6385C68.2697 99.7417 68.1663 99.8116 68.0489 99.833C67.9269 99.8614 67.8067 99.8319 67.7052 99.7656C67.531 99.652 67.3301 99.511 67.1536 99.3959C67.0543 99.3212 66.9827 99.2156 66.9618 99.0941C66.9417 98.973 66.9732 98.8464 67.0481 98.7482C67.3683 98.3294 67.8888 97.6488 68.2592 97.1646C68.3747 97.0144 68.549 96.9124 68.7349 96.8964C68.9244 96.8729 69.1199 96.9221 69.2653 97.0464L69.2661 97.0469C69.5513 97.2723 69.6166 97.6779 69.4191 97.9805C69.0958 98.4759 68.6244 99.1982 68.337 99.6385Z" fill="#FFC8A3"/>
<path fill-rule="evenodd" clip-rule="evenodd" d="M67.1594 98.9847C67.0903 99.0906 66.9755 99.1668 66.8474 99.1871C66.715 99.2141 66.5804 99.1829 66.4672 99.109C66.3206 99.0133 66.1593 98.8986 66.0111 98.8019C65.8956 98.7265 65.82 98.6016 65.7944 98.4716C65.7723 98.3344 65.8028 98.2031 65.8846 98.0959C66.1896 97.7 66.6583 97.0897 67.0017 96.6432C67.1176 96.4922 67.2953 96.3909 67.487 96.3744C67.6831 96.3512 67.8782 96.4125 68.0345 96.5333C68.3059 96.7483 68.3699 97.13 68.1883 97.4082L67.1594 98.9847Z" fill="#FFC8A3"/>
<path fill-rule="evenodd" clip-rule="evenodd" d="M100.761 57.5111C100.823 57.0997 87.8341 64.1315 82.5159 69.0829C82.2427 69.3402 81.9895 69.621 81.7631 69.9172C80.1488 72.0288 72.7133 81.8382 71.4704 84.5807C70.6262 86.4475 71.069 87.9793 71.069 87.9793L70.2031 89.9614C70.2031 89.9614 72.376 93.7496 75.4473 93.8641C75.4473 93.8641 75.9856 93.2866 76.4748 92.8859C76.9641 92.4852 77.6079 93.0545 78.9725 91.6266C80.3406 90.1945 90.1226 77.2818 90.1226 77.2818C90.1226 77.2818 97.3826 71.683 99.4111 68.0491C101.436 64.4194 100.761 57.5111 100.761 57.5111Z" fill="#E00034"/>
</g>
<defs>
<clipPath id="clip0_79_3307">
<rect width="188" height="188" fill="white"/>
</clipPath>
</defs>
</svg>
